<svg width="50" height="50" viewBox="0 0 50 50" fill="none" xmlns="http://www.w3.org/2000/svg">
<g id="&#240;&#159;&#166;&#134; icon &#34;GENERIC Cryptocurrency&#34;">
<g id="Group">
<path id="Vector" d="M25 50C38.8071 50 50 38.8071 50 25C50 11.1929 38.8071 0 25 0C11.1929 0 0 11.1929 0 25C0 38.8071 11.1929 50 25 50Z" fill="#EFB914"/>
<path id="Vector_2" fill-rule="evenodd" clip-rule="evenodd" d="M32.8156 15.3984C34.1241 16.4251 35.213 17.7042 36.0177 19.1598C36.8224 20.6154 37.3264 22.2178 37.5 23.8719L33.0515 22.7656C32.6329 21.3677 31.8561 20.1035 30.7981 19.0985C29.7402 18.0934 28.4378 17.3824 27.0203 17.0359C22.5422 15.9219 18.0203 18.5844 16.9187 22.9828C15.8172 27.3813 18.5594 31.85 23.039 32.9641C24.455 33.3215 25.9397 33.3034 27.3465 32.9116C28.7534 32.5197 30.0336 31.7677 31.0609 30.7297L35.5094 31.8344C34.5772 33.2142 33.3779 34.3931 31.9824 35.3016C30.5869 36.21 29.0234 36.8295 27.3844 37.1234L26.1187 42.1875L22.0625 41.1797L23.0687 37.1563C22.3802 37.043 21.7019 36.8742 21.0406 36.6516L20.0359 40.675L15.9797 39.6656L17.2453 34.6016C13.5297 31.6719 11.6594 26.7953 12.864 21.975C14.0687 17.1547 18.0156 13.7234 22.6765 12.8766L23.9422 7.8125L27.9984 8.82031L26.9922 12.8438C27.6807 12.957 28.359 13.1258 29.0203 13.3484L30.025 9.325L34.0812 10.3344L32.8156 15.3984Z" fill="white"/>
</g>
</g>
</svg>
